<svg xmlns="http://www.w3.org/2000/svg" id="Layer_2" data-name="Layer 2" viewBox="0 0 275.23 261.68"><defs><style>      .cls-1 {        fill: none;        stroke: #161313;        stroke-linecap: round;        stroke-linejoin: round;        stroke-width: 5.41px;      }      .cls-2 {        fill: #ff9f0d;      }      .cls-2, .cls-3 {        stroke-width: 0px;      }      .cls-3 {        fill: #f4f2f3;      }    </style></defs><g id="Icons"><g><path class="cls-3" d="M218.14,0c-15.02,0-31.2,7.44-46.1,24.93C120.3,85.64,26.22,96.67,3.25,133.6c-22.69,36.48,78.82,128.07,135.61,128.07.69,0,1.39-.01,2.07-.04,106.13-4.33,139.31-144.82,133.7-199.26C270.97,26.73,246.62,0,218.14,0"></path><g><path class="cls-2" d="M231.97,74.79l-8.17,25.23c-.28.82-.28,1.72,0,2.54l8.17,25.23-21.48,15.64c-.69.49-1.18,1.23-1.47,2.04l-8.2,25.23h-26.54c-.86,0-1.72.29-2.41.78l-21.48,15.6-21.48-15.6c-.69-.49-1.55-.78-2.41-.78h-26.54l-8.21-25.23c-.28-.82-.78-1.56-1.47-2.04l-21.48-15.64,8.17-25.23c.29-.82.29-1.72,0-2.54l-8.17-25.23,21.48-15.64c.69-.49,1.18-1.23,1.47-2.04l8.21-25.23h26.54c.86,0,1.72-.29,2.41-.78l21.48-15.6,21.48,15.6c.69.49,1.55.78,2.41.78h26.54l8.2,25.23c.29.82.78,1.56,1.47,2.04l21.48,15.64ZM193.4,135.34c7.43-9.36,11.87-21.2,11.87-34.05,0-30.26-24.63-54.88-54.89-54.88s-54.88,24.62-54.88,54.88c0,12.73,4.36,24.47,11.66,33.79,10.05,12.84,25.69,21.09,43.22,21.09s32.96-8.15,43.02-20.83Z"></path><path class="cls-1" d="M193.4,135.34c7.43-9.36,11.87-21.2,11.87-34.05,0-30.26-24.63-54.88-54.89-54.88s-54.88,24.62-54.88,54.88c0,12.73,4.36,24.47,11.66,33.79"></path><path class="cls-1" d="M107.16,135.08c10.05,12.84,25.69,21.09,43.22,21.09s32.96-8.15,43.02-20.83"></path><path class="cls-1" d="M182.15,170.71h-7.87c-.86,0-1.72.29-2.41.78l-21.48,15.6-21.48-15.6c-.69-.49-1.55-.78-2.41-.78h-26.54l-8.21-25.23c-.28-.82-.78-1.56-1.47-2.04l-21.48-15.64,8.17-25.23c.29-.82.29-1.72,0-2.54l-8.17-25.23,21.48-15.64c.69-.49,1.18-1.23,1.47-2.04l8.21-25.23h26.54c.86,0,1.72-.29,2.41-.78l21.48-15.6,21.48,15.6c.69.49,1.55.78,2.41.78h26.54l8.2,25.23c.29.82.78,1.56,1.47,2.04l21.48,15.64-8.17,25.23c-.28.82-.28,1.72,0,2.54l8.17,25.23-21.48,15.64c-.69.49-1.18,1.23-1.47,2.04l-8.2,25.23h-18.67Z"></path><polyline class="cls-1" points="119.57 170.71 119.57 241.77 149.62 219.14 182.15 243.18 182.15 170.71"></polyline><path class="cls-1" d="M131.93,98.08c-2.06-3.35.82-8.05,3.56-8.66"></path><path class="cls-1" d="M143.82,125.94l-18.06-18.31c-17.32-17.57,7.28-41.82,24.6-24.26,17.57-17.32,41.83,7.28,24.26,24.6l-24.29,23.92"></path></g></g></g></svg>